<svg width="28" height="18" viewBox="0 0 28 18" fill="none" xmlns="http://www.w3.org/2000/svg">
<path d="M5.42496 17.9913C8.1208 17.9913 10.3673 15.9344 10.775 13.2353H12.098C12.3975 13.8602 13.0299 14.2941 13.7621 14.2941C14.7855 14.2941 15.6092 13.4349 15.6092 12.3761C15.6092 11.9074 15.4428 11.4735 15.1683 11.135L19.2536 6.57859L19.5698 7.42045C17.9223 8.3838 16.8074 10.2324 16.8074 12.3414C16.8074 15.4658 19.237 18 22.2407 18C25.2277 18 27.649 15.4658 27.649 12.3414C27.649 9.21697 25.2277 6.69142 22.2407 6.69142C21.783 6.69142 21.3337 6.75217 20.9094 6.865L18.5547 0.642237C18.3883 0.190935 18.0887 0 17.5646 0H15.0684C14.6607 0 14.3279 0.347155 14.3279 0.772421C14.3279 1.18901 14.6607 1.53616 15.0684 1.53616H17.2733C17.3482 1.53616 17.3649 1.55352 17.3898 1.60559L18.7211 5.14658L11.3242 6.24012L10.2342 4.11379H11.1495C11.5572 4.11379 11.8817 3.77531 11.8817 3.35005C11.8817 2.92478 11.5488 2.57763 11.1495 2.57763H7.58829C7.1889 2.57763 6.85608 2.92478 6.85608 3.35005C6.85608 3.77531 7.18058 4.11379 7.58829 4.11379H8.64499L9.80986 6.44841L8.61171 7.7676C7.72142 7.09065 6.61479 6.69142 5.42496 6.69142C2.42126 6.69142 0 9.21697 0 12.3414C0 15.4658 2.42958 17.9913 5.42496 17.9913ZM13.7621 10.4581C13.6706 10.4581 13.5874 10.4667 13.4958 10.4754L12.0065 7.56799L17.2567 6.79557L13.9035 10.4581C13.8536 10.4581 13.812 10.4581 13.7621 10.4581ZM10.825 11.8033C10.7168 10.6577 10.2841 9.60752 9.62681 8.76567L10.5005 7.81967L12.2394 11.2912C12.1313 11.4474 12.0564 11.621 11.9981 11.8033H10.825ZM5.42496 16.4465C3.24499 16.4465 1.49769 14.6239 1.49769 12.3414C1.49769 10.0762 3.25331 8.24494 5.42496 8.24494C6.22373 8.24494 6.95593 8.48795 7.57165 8.90453L5.55809 11.1176C5.51649 11.109 5.47488 11.109 5.42496 11.109C4.76764 11.109 4.25177 11.6384 4.24345 12.3414C4.23513 13.027 4.75932 13.5738 5.42496 13.5738C5.74114 13.5738 6.03236 13.4436 6.24037 13.2353H9.26071C8.87796 15.0752 7.30539 16.4465 5.42496 16.4465ZM22.2407 16.4465C20.0607 16.4465 18.3051 14.6239 18.3051 12.3414C18.3051 10.892 19.029 9.6162 20.1189 8.88718L21.1923 11.7512C21.1091 11.9248 21.0508 12.1244 21.0508 12.3414C21.0425 13.027 21.5667 13.5738 22.2407 13.5738C22.898 13.5738 23.4139 13.027 23.4139 12.3414C23.4139 11.7599 23.0478 11.2825 22.5319 11.1437L21.4669 8.32305C21.7165 8.27098 21.9744 8.24494 22.2407 8.24494C24.404 8.24494 26.1679 10.0849 26.1679 12.3414C26.1679 14.6152 24.404 16.4465 22.2407 16.4465ZM6.83112 11.8033L8.58675 9.90261C8.96949 10.4407 9.23575 11.0916 9.32727 11.8033H6.83112ZM13.7704 12.9923C13.4293 12.9923 13.163 12.7146 13.163 12.3934C13.163 12.0463 13.4376 11.7512 13.7704 11.7512C14.1032 11.7512 14.3612 12.0376 14.3612 12.3934C14.3612 12.7232 14.1032 12.9923 13.7704 12.9923Z" fill="white"/>
</svg>
